<mxfile host="app.diagrams.net" modified="2024-03-13T15:30:19.435Z" agent="Mozilla/5.0 (Windows NT 10.0; Win64; x64) AppleWebKit/537.36 (KHTML, like Gecko) Chrome/122.0.0.0 Safari/537.36" version="24.0.5" etag="h0SV2fJPpmFgZ8egVEkI" type="github">
  <diagram id="7fQXatVCyKMAwrhFBjrW" name="Services List">
    <mxGraphModel dx="1560" dy="720" grid="1" gridSize="10" guides="1" tooltips="1" connect="1" arrows="1" fold="1" page="1" pageScale="1" pageWidth="827" pageHeight="1169" math="0" shadow="0">
      <root>
        <mxCell id="0" />
        <mxCell id="1" parent="0" />
        <mxCell id="A0G-8-MBOD8QV7Cfzk0s-3" value="" style="rounded=0;whiteSpace=wrap;html=1;align=left;" vertex="1" parent="1">
          <mxGeometry x="460" y="40" width="240" height="430" as="geometry" />
        </mxCell>
        <mxCell id="A0G-8-MBOD8QV7Cfzk0s-4" value="UK NDRS" style="text;html=1;align=center;verticalAlign=middle;whiteSpace=wrap;rounded=0;" vertex="1" parent="1">
          <mxGeometry x="510" y="10" width="140" height="30" as="geometry" />
        </mxCell>
        <mxCell id="A0G-8-MBOD8QV7Cfzk0s-5" value="Multiple data sources" style="shape=cylinder3;whiteSpace=wrap;html=1;boundedLbl=1;backgroundOutline=1;size=6.3333740234375;" vertex="1" parent="1">
          <mxGeometry x="640" y="210" width="60" height="70" as="geometry" />
        </mxCell>
        <mxCell id="A0G-8-MBOD8QV7Cfzk0s-8" style="edgeStyle=orthogonalEdgeStyle;rounded=0;orthogonalLoop=1;jettySize=auto;html=1;entryX=0;entryY=0.5;entryDx=0;entryDy=0;" edge="1" parent="1" source="A0G-8-MBOD8QV7Cfzk0s-6" target="A0G-8-MBOD8QV7Cfzk0s-7">
          <mxGeometry relative="1" as="geometry" />
        </mxCell>
        <mxCell id="A0G-8-MBOD8QV7Cfzk0s-6" value="Researcher&lt;div&gt;&lt;br&gt;&lt;/div&gt;" style="shape=umlActor;verticalLabelPosition=bottom;verticalAlign=top;html=1;outlineConnect=0;" vertex="1" parent="1">
          <mxGeometry x="260" y="80" width="30" height="60" as="geometry" />
        </mxCell>
        <mxCell id="A0G-8-MBOD8QV7Cfzk0s-7" value="Data Access Request Service" style="shape=process;whiteSpace=wrap;html=1;backgroundOutline=1;" vertex="1" parent="1">
          <mxGeometry x="474" y="85" width="120" height="60" as="geometry" />
        </mxCell>
        <mxCell id="A0G-8-MBOD8QV7Cfzk0s-12" value="CancerStats2" style="shape=process;whiteSpace=wrap;html=1;backgroundOutline=1;" vertex="1" parent="1">
          <mxGeometry x="474" y="230" width="120" height="60" as="geometry" />
        </mxCell>
        <mxCell id="A0G-8-MBOD8QV7Cfzk0s-13" value="CancerData" style="shape=process;whiteSpace=wrap;html=1;backgroundOutline=1;" vertex="1" parent="1">
          <mxGeometry x="474" y="310" width="120" height="60" as="geometry" />
        </mxCell>
        <mxCell id="A0G-8-MBOD8QV7Cfzk0s-14" value="Cancer Outcomes and Services Data set" style="shape=process;whiteSpace=wrap;html=1;backgroundOutline=1;" vertex="1" parent="1">
          <mxGeometry x="474" y="390" width="120" height="60" as="geometry" />
        </mxCell>
        <mxCell id="A0G-8-MBOD8QV7Cfzk0s-15" value="CAS Explorer &lt;font style=&quot;font-size: 8px;&quot;&gt;(&lt;span style=&quot;color: rgb(53, 53, 53); font-family: Arial, Helvetica, sans-serif; text-align: start; background-color: rgb(255, 255, 255);&quot;&gt;s&lt;/span&gt;&lt;span style=&quot;color: rgb(53, 53, 53); font-family: Arial, Helvetica, sans-serif; text-align: start; background-color: rgb(255, 255, 255);&quot;&gt;&lt;font style=&quot;font-size: 8px;&quot;&gt;hows the completeness of the cancer registration data)&lt;/font&gt;&lt;/span&gt;&lt;/font&gt;" style="shape=process;whiteSpace=wrap;html=1;backgroundOutline=1;" vertex="1" parent="1">
          <mxGeometry x="474" y="160" width="120" height="60" as="geometry" />
        </mxCell>
        <mxCell id="A0G-8-MBOD8QV7Cfzk0s-16" value="National Congenital Anomaly and Rare Diseases Registration Services (NCARDRS)" style="shape=process;whiteSpace=wrap;html=1;backgroundOutline=1;" vertex="1" parent="1">
          <mxGeometry x="474" y="480" width="196" height="60" as="geometry" />
        </mxCell>
        <mxCell id="A0G-8-MBOD8QV7Cfzk0s-17" value="" style="rounded=0;whiteSpace=wrap;html=1;align=left;" vertex="1" parent="1">
          <mxGeometry x="460" y="610" width="240" height="430" as="geometry" />
        </mxCell>
        <mxCell id="A0G-8-MBOD8QV7Cfzk0s-21" value="Request Auth Service" style="shape=process;whiteSpace=wrap;html=1;backgroundOutline=1;" vertex="1" parent="1">
          <mxGeometry x="474" y="640" width="120" height="60" as="geometry" />
        </mxCell>
        <mxCell id="A0G-8-MBOD8QV7Cfzk0s-22" value="US NIH" style="text;html=1;align=center;verticalAlign=middle;whiteSpace=wrap;rounded=0;" vertex="1" parent="1">
          <mxGeometry x="520" y="580" width="140" height="30" as="geometry" />
        </mxCell>
        <mxCell id="A0G-8-MBOD8QV7Cfzk0s-23" value="NIH Genomic Data Commons Data Port for Harmonized Cancer Datasets" style="shape=process;whiteSpace=wrap;html=1;backgroundOutline=1;" vertex="1" parent="1">
          <mxGeometry x="474" y="740" width="120" height="60" as="geometry" />
        </mxCell>
        <mxCell id="A0G-8-MBOD8QV7Cfzk0s-25" value="" style="rounded=0;whiteSpace=wrap;html=1;align=left;" vertex="1" parent="1">
          <mxGeometry x="60" y="620" width="240" height="430" as="geometry" />
        </mxCell>
        <mxCell id="A0G-8-MBOD8QV7Cfzk0s-30" value="Researcher Tools for Accessing Remote Data" style="text;html=1;align=center;verticalAlign=middle;whiteSpace=wrap;rounded=0;" vertex="1" parent="1">
          <mxGeometry x="100" y="590" width="140" height="30" as="geometry" />
        </mxCell>
        <UserObject label="https://github.com/OpenMined/PySyft" link="https://github.com/OpenMined/PySyft" id="A0G-8-MBOD8QV7Cfzk0s-33">
          <mxCell style="text;whiteSpace=wrap;" vertex="1" parent="1">
            <mxGeometry x="65" y="640" width="230" height="40" as="geometry" />
          </mxCell>
        </UserObject>
      </root>
    </mxGraphModel>
  </diagram>
</mxfile>
